<svg xmlns="http://www.w3.org/2000/svg" viewBox="193 314 226.8 139.2">
  <defs>
    <style>
      .cls-1 {
        fill: #c00;
      }
    </style>
  </defs>
  <g id="rails" transform="translate(191 313.6)">
    <path id="Path_5" data-name="Path 5" class="cls-1" d="M9,139.6H88S72.9,70.7,122.9,42.8c10.9-5.3,45.6-25.1,102.4,16.9,1.8-1.5,3.5-2.7,3.5-2.7s-52-51.9-109.9-46.1C89.8,13.5,54,40,33,75S9,139.6,9,139.6Z"/>
    <path id="Path_6" data-name="Path 6" class="cls-1" d="M9,139.6H88S72.9,70.7,122.9,42.8c10.9-5.3,45.6-25.1,102.4,16.9,1.8-1.5,3.5-2.7,3.5-2.7s-52-51.9-109.9-46.1C89.8,13.5,54,40,33,75S9,139.6,9,139.6Z"/>
    <path id="Path_7" data-name="Path 7" class="cls-1" d="M9,139.6H88S72.9,70.7,122.9,42.8c10.9-5.3,45.6-25.1,102.4,16.9,1.8-1.5,3.5-2.7,3.5-2.7s-52-51.9-109.9-46.1C89.7,13.5,53.9,40,32.9,75S9,139.6,9,139.6Z"/>
    <path id="Path_8" data-name="Path 8" class="cls-1" d="M173.6,16.5l.4-6.7c-.9-.5-3.4-1.7-9.7-3.5l-.4,6.6C167.2,14,170.4,15.2,173.6,16.5Z"/>
    <path id="Path_9" data-name="Path 9" class="cls-1" d="M164.1,37.7l-.4,6.3a55.764,55.764,0,0,1,9.9,1.2L174,39A70.814,70.814,0,0,0,164.1,37.7Z"/>
    <path id="Path_10" data-name="Path 10" class="cls-1" d="M127.1,6.5h1l-2-6.1a79.79,79.79,0,0,0-9.6.6l1.9,5.9A84.423,84.423,0,0,1,127.1,6.5Z"/>
    <path id="Path_11" data-name="Path 11" class="cls-1" d="M131.9,43.3l2.3,6.9a63.266,63.266,0,0,1,8.7-3.5l-2.2-6.6A72.553,72.553,0,0,0,131.9,43.3Z"/>
    <path id="Path_12" data-name="Path 12" class="cls-1" d="M86.5,17,82,10.1c-2.5,1.3-5.1,2.7-7.8,4.3l4.6,7C81.4,19.8,83.9,18.3,86.5,17Z"/>
    <path id="Path_13" data-name="Path 13" class="cls-1" d="M107,62l4.8,7.2a55.526,55.526,0,0,1,5.9-7.1l-4.5-6.8A55.323,55.323,0,0,0,107,62Z"/>
    <path id="Path_14" data-name="Path 14" class="cls-1" d="M92.5,94.2l8.1,6.4a79.862,79.862,0,0,1,2.1-11.7l-7.2-5.7A95.079,95.079,0,0,0,92.5,94.2Z"/>
    <path id="Path_15" data-name="Path 15" class="cls-1" d="M48.7,46.7l-7.1-6.2c-2.6,2.5-5.1,5-7.4,7.5l7.7,6.6A101.274,101.274,0,0,1,48.7,46.7Z"/>
    <path id="Path_16" data-name="Path 16" class="cls-1" d="M18.5,91.4,7,87.2c-1.9,4.3-4,9.3-5,12l11.5,4.2C14.8,100,16.9,95.1,18.5,91.4Z"/>
    <path id="Path_17" data-name="Path 17" class="cls-1" d="M91,119.6a101.591,101.591,0,0,0,1.2,12.6l12,4.3a132.171,132.171,0,0,1-2.4-13Z"/>
  </g>
</svg>
