<svg xmlns="http://www.w3.org/2000/svg" viewBox="93.628 195.089 561.802 500.019">
  <defs>
    <style>
      .cls-1 {
        fill: #00d8ff;
      }

      .cls-2 {
        fill: none;
        stroke: #00d8ff;
        stroke-miterlimit: 10;
        stroke-width: 24px;
      }
    </style>
  </defs>
  <g id="react-logo" transform="translate(75 145)">
    <circle id="Ellipse_1" data-name="Ellipse 1" class="cls-1" cx="50.167" cy="50.167" r="50.167" transform="translate(249.362 249.461)"/>
    <path id="Path_1" data-name="Path 1" class="cls-2" d="M299.529,197.628c67.356,0,129.928,9.665,177.107,25.907,56.844,19.569,91.794,49.233,91.794,76.093,0,27.991-37.041,59.5-98.083,79.728-46.151,15.291-106.879,23.272-170.818,23.272-65.554,0-127.63-7.492-174.29-23.441C66.193,359,30.628,327.084,30.628,299.628c0-26.642,33.37-56.076,89.415-75.616C167.4,207.5,231.515,197.628,299.529,197.628Z"/>
    <path id="Path_2" data-name="Path 2" class="cls-2" d="M210.736,248.922c33.649-58.348,73.281-107.724,110.92-140.48,45.35-39.466,88.507-54.923,111.775-41.505,24.248,13.983,33.042,61.814,20.067,124.8-9.81,47.618-33.234,104.212-65.176,159.6-32.749,56.788-70.25,106.819-107.377,139.272-46.981,41.068-92.4,55.929-116.185,42.213-23.079-13.31-31.906-56.921-20.834-115.233C153.281,368.316,176.758,307.841,210.736,248.922Z"/>
    <path id="Path_3" data-name="Path 3" class="cls-2" d="M210.821,351.482c-33.746-58.292-56.731-117.287-66.312-166.255-11.544-59-3.382-104.109,19.864-117.566C188.6,53.637,234.428,69.9,282.513,112.6c36.356,32.28,73.688,80.837,105.723,136.173,32.844,56.733,57.461,114.209,67.036,162.582,12.117,61.213,2.309,107.984-21.453,121.74-23.057,13.348-65.249-.784-110.239-39.5C285.567,460.886,244.9,410.344,210.821,351.482Z"/>
  </g>
</svg>
